# Blender v2.76 (sub 0) OBJ File: 'v03.blend'
# www.blender.org
mtllib m1.mtl
o BezierCurve
v -0.995252 0.435580 0.291990
v -0.993741 0.435580 0.289233
v -0.992730 0.435580 0.281370
v -0.992134 0.435580 0.269414
v -0.991871 0.435580 0.254381
v -0.991856 0.435580 0.237285
v -0.992006 0.435580 0.219140
v -0.992237 0.435580 0.200962
v -0.992466 0.435580 0.183765
v -0.992609 0.435580 0.168563
v -0.992583 0.435580 0.156371
v -0.992303 0.435580 0.148204
v -0.991687 0.435580 0.145076
v -0.987764 0.435580 0.144640
v -0.979420 0.435580 0.144269
v -0.967545 0.435580 0.143960
v -0.953031 0.435580 0.143709
v -0.936771 0.435580 0.143511
v -0.919656 0.435580 0.143363
v -0.902578 0.435580 0.143260
v -0.886427 0.435580 0.143198
v -0.872097 0.435580 0.143173
v -0.860478 0.435580 0.143182
v -0.852462 0.435580 0.143219
v -0.848941 0.435580 0.143282
v -0.847514 0.435580 0.146330
v -0.846729 0.435580 0.154520
v -0.846473 0.435580 0.166821
v -0.846630 0.435580 0.182204
v -0.847085 0.435580 0.199641
v -0.847723 0.435580 0.218102
v -0.848429 0.435580 0.236558
v -0.849087 0.435580 0.253980
v -0.849583 0.435580 0.269338
v -0.849800 0.435580 0.281604
v -0.849625 0.435580 0.289747
v -0.848941 0.435580 0.292739
v -0.850392 0.435580 0.292832
v -0.857567 0.435580 0.292851
v -0.869334 0.435580 0.292808
v -0.884562 0.435580 0.292719
v -0.902121 0.435580 0.292597
v -0.920878 0.435580 0.292456
v -0.939703 0.435580 0.292310
v -0.957465 0.435580 0.292173
v -0.973032 0.435580 0.292059
v -0.985273 0.435580 0.291981
v -0.993056 0.435580 0.291953
v -0.995252 -0.564420 0.291990
v -0.993741 -0.564420 0.289233
v -0.992730 -0.564420 0.281370
v -0.992134 -0.564420 0.269414
v -0.991871 -0.564420 0.254381
v -0.991856 -0.564420 0.237285
v -0.992006 -0.564420 0.219140
v -0.992237 -0.564420 0.200962
v -0.992466 -0.564420 0.183765
v -0.992609 -0.564420 0.168563
v -0.992583 -0.564420 0.156371
v -0.992303 -0.564420 0.148204
v -0.991687 -0.564420 0.145076
v -0.987764 -0.564420 0.144640
v -0.979420 -0.564420 0.144269
v -0.967545 -0.564420 0.143960
v -0.953031 -0.564420 0.143709
v -0.936771 -0.564420 0.143511
v -0.919656 -0.564420 0.143363
v -0.902578 -0.564420 0.143260
v -0.886427 -0.564420 0.143198
v -0.872097 -0.564420 0.143173
v -0.860478 -0.564420 0.143182
v -0.852462 -0.564420 0.143219
v -0.848941 -0.564420 0.143282
v -0.847514 -0.564420 0.146330
v -0.846729 -0.564420 0.154520
v -0.846473 -0.564420 0.166821
v -0.846630 -0.564420 0.182204
v -0.847085 -0.564420 0.199641
v -0.847723 -0.564420 0.218102
v -0.848429 -0.564420 0.236558
v -0.849087 -0.564420 0.253980
v -0.849583 -0.564420 0.269338
v -0.849800 -0.564420 0.281604
v -0.849625 -0.564420 0.289747
v -0.848941 -0.564420 0.292739
v -0.850392 -0.564420 0.292832
v -0.857567 -0.564420 0.292851
v -0.869334 -0.564420 0.292808
v -0.884562 -0.564420 0.292719
v -0.902121 -0.564420 0.292597
v -0.920878 -0.564420 0.292456
v -0.939703 -0.564420 0.292310
v -0.957465 -0.564420 0.292173
v -0.973032 -0.564420 0.292059
v -0.985273 -0.564420 0.291981
v -0.993056 -0.564420 0.291953
v -0.995252 -0.564420 0.291990
v -0.995252 0.435580 0.291990
v -0.993741 -0.564420 0.289233
v -0.993741 0.435580 0.289233
v -0.992730 -0.564420 0.281370
v -0.992730 0.435580 0.281370
v -0.992134 -0.564420 0.269414
v -0.992134 0.435580 0.269414
v -0.991871 -0.564420 0.254381
v -0.991871 0.435580 0.254381
v -0.991856 -0.564420 0.237285
v -0.991856 0.435580 0.237285
v -0.992006 -0.564420 0.219140
v -0.992006 0.435580 0.219140
v -0.992237 -0.564420 0.200962
v -0.992237 0.435580 0.200962
v -0.992466 -0.564420 0.183765
v -0.992466 0.435580 0.183765
v -0.992609 -0.564420 0.168563
v -0.992609 0.435580 0.168563
v -0.992583 -0.564420 0.156371
v -0.992583 0.435580 0.156371
v -0.992303 -0.564420 0.148204
v -0.992303 0.435580 0.148204
v -0.991687 -0.564420 0.145076
v -0.991687 0.435580 0.145076
v -0.987764 -0.564420 0.144640
v -0.987764 0.435580 0.144640
v -0.979420 -0.564420 0.144269
v -0.979420 0.435580 0.144269
v -0.967545 -0.564420 0.143960
v -0.967545 0.435580 0.143960
v -0.953031 -0.564420 0.143709
v -0.953031 0.435580 0.143709
v -0.936771 -0.564420 0.143511
v -0.936771 0.435580 0.143511
v -0.919656 -0.564420 0.143363
v -0.919656 0.435580 0.143363
v -0.902578 -0.564420 0.143260
v -0.902578 0.435580 0.143260
v -0.886427 -0.564420 0.143198
v -0.886427 0.435580 0.143198
v -0.872097 -0.564420 0.143173
v -0.872097 0.435580 0.143173
v -0.860478 -0.564420 0.143182
v -0.860478 0.435580 0.143182
v -0.852462 -0.564420 0.143219
v -0.852462 0.435580 0.143219
v -0.848941 -0.564420 0.143282
v -0.848941 0.435580 0.143282
v -0.847514 -0.564420 0.146330
v -0.847514 0.435580 0.146330
v -0.846729 -0.564420 0.154520
v -0.846729 0.435580 0.154520
v -0.846473 -0.564420 0.166821
v -0.846473 0.435580 0.166821
v -0.846630 -0.564420 0.182204
v -0.846630 0.435580 0.182204
v -0.847085 -0.564420 0.199641
v -0.847085 0.435580 0.199641
v -0.847723 -0.564420 0.218102
v -0.847723 0.435580 0.218102
v -0.848429 -0.564420 0.236558
v -0.848429 0.435580 0.236558
v -0.849087 -0.564420 0.253980
v -0.849087 0.435580 0.253980
v -0.849583 -0.564420 0.269338
v -0.849583 0.435580 0.269338
v -0.849800 -0.564420 0.281604
v -0.849800 0.435580 0.281604
v -0.849625 -0.564420 0.289747
v -0.849625 0.435580 0.289747
v -0.848941 -0.564420 0.292739
v -0.848941 0.435580 0.292739
v -0.850392 -0.564420 0.292832
v -0.850392 0.435580 0.292832
v -0.857567 -0.564420 0.292851
v -0.857567 0.435580 0.292851
v -0.869334 -0.564420 0.292808
v -0.869334 0.435580 0.292808
v -0.884562 -0.564420 0.292719
v -0.884562 0.435580 0.292719
v -0.902121 -0.564420 0.292597
v -0.902121 0.435580 0.292597
v -0.920878 -0.564420 0.292456
v -0.920878 0.435580 0.292456
v -0.939703 -0.564420 0.292310
v -0.939703 0.435580 0.292310
v -0.957465 -0.564420 0.292173
v -0.957465 0.435580 0.292173
v -0.973032 -0.564420 0.292059
v -0.973032 0.435580 0.292059
v -0.985273 -0.564420 0.291981
v -0.985273 0.435580 0.291981
v -0.993056 -0.564420 0.291953
v -0.993056 0.435580 0.291953
vn 0.000000 1.000000 0.000000
vn 0.000000 1.000000 -0.000400
vn 0.000000 1.000000 0.000300
vn 0.000000 1.000000 -0.000100
vn 0.000000 1.000000 0.000400
vn 0.000000 1.000000 0.001400
vn 0.000000 1.000000 -0.001500
vn 0.000000 1.000000 -0.000300
vn 0.000000 -1.000000 0.000000
vn 0.000000 -1.000000 -0.000600
vn 0.000000 -1.000000 0.000100
vn 0.000000 -1.000000 -0.000100
vn 0.000000 -1.000000 -0.006900
vn 0.000000 -1.000000 0.002600
vn 0.000000 -1.000000 -0.000400
vn 0.000000 -1.000000 -0.000700
vn 0.000000 -1.000000 0.000800
vn 0.000000 -1.000000 -0.000900
vn 0.000000 -1.000000 0.000600
vn -0.950900 0.000000 -0.309400
vn -0.856100 0.000000 0.516800
vn -0.996000 0.000000 -0.088700
vn -0.999400 0.000000 -0.033600
vn -0.999900 0.000000 -0.009200
vn -1.000000 0.000000 0.003700
vn -0.999900 0.000000 0.010500
vn -0.999900 0.000000 0.013000
vn -0.999900 0.000000 0.011400
vn -1.000000 0.000000 0.003600
vn -0.999800 0.000000 -0.018200
vn -0.993500 0.000000 -0.114100
vn -0.676900 0.000000 -0.736100
vn -0.077500 0.000000 -0.997000
vn -0.035200 0.000000 -0.999400
vn -0.021600 0.000000 -0.999800
vn -0.014700 0.000000 -0.999900
vn -0.010400 0.000000 -0.999900
vn -0.007400 0.000000 -1.000000
vn -0.004900 0.000000 -1.000000
vn -0.002700 0.000000 -1.000000
vn -0.000500 0.000000 -1.000000
vn 0.002700 0.000000 -1.000000
vn 0.011200 0.000000 -0.999900
vn 0.544000 0.000000 -0.839000
vn 0.964600 0.000000 -0.263600
vn 0.998300 0.000000 -0.058100
vn 1.000000 0.000000 -0.005300
vn 0.999800 0.000000 0.018100
vn 0.999500 0.000000 0.030300
vn 0.999300 0.000000 0.036300
vn 0.999300 0.000000 0.038000
vn 0.999400 0.000000 0.035000
vn 0.999700 0.000000 0.025000
vn 1.000000 0.000000 -0.001900
vn 0.992400 0.000000 -0.122700
vn 0.801400 0.000000 0.598100
vn 0.033300 0.000000 0.999400
vn 0.033200 0.000000 0.999400
vn -0.000500 0.000000 1.000000
vn -0.004700 0.000000 1.000000
vn -0.006400 0.000000 1.000000
vn -0.007200 0.000000 1.000000
vn -0.007600 0.000000 1.000000
vn -0.007700 0.000000 1.000000
vn -0.007500 0.000000 1.000000
vn -0.006800 0.000000 1.000000
vn -0.004900 0.000000 1.000000
vn 0.006600 0.000000 1.000000
usemtl None
s off
f 21//1 23//1 22//1
f 21//2 24//2 23//2
f 20//1 24//1 21//1
f 20//3 25//3 24//3
f 19//1 25//1 20//1
f 19//1 26//1 25//1
f 18//1 26//1 19//1
f 17//1 26//1 18//1
f 16//1 26//1 17//1
f 15//4 26//4 16//4
f 14//1 26//1 15//1
f 13//1 26//1 14//1
f 12//1 26//1 13//1
f 12//1 27//1 26//1
f 11//1 27//1 12//1
f 11//1 28//1 27//1
f 10//1 28//1 11//1
f 10//1 29//1 28//1
f 9//1 29//1 10//1
f 9//1 30//1 29//1
f 8//1 30//1 9//1
f 8//1 31//1 30//1
f 7//1 31//1 8//1
f 7//1 32//1 31//1
f 6//1 32//1 7//1
f 6//1 33//1 32//1
f 5//1 33//1 6//1
f 5//1 34//1 33//1
f 4//1 34//1 5//1
f 4//1 35//1 34//1
f 3//1 35//1 4//1
f 2//1 35//1 3//1
f 2//1 36//1 35//1
f 1//1 48//1 2//1
f 48//1 36//1 2//1
f 48//5 47//5 36//5
f 47//1 37//1 36//1
f 46//1 37//1 47//1
f 45//1 37//1 46//1
f 44//1 37//1 45//1
f 43//6 37//6 44//6
f 42//7 37//7 43//7
f 41//1 37//1 42//1
f 40//1 37//1 41//1
f 40//8 38//8 37//8
f 39//1 38//1 40//1
f 71//9 69//9 70//9
f 72//9 69//9 71//9
f 72//9 68//9 69//9
f 73//9 68//9 72//9
f 73//10 67//10 68//10
f 74//9 67//9 73//9
f 74//9 66//9 67//9
f 74//9 65//9 66//9
f 74//11 64//11 65//11
f 74//12 63//12 64//12
f 74//9 62//9 63//9
f 74//9 61//9 62//9
f 74//9 60//9 61//9
f 75//9 60//9 74//9
f 75//9 59//9 60//9
f 76//9 59//9 75//9
f 76//9 58//9 59//9
f 77//9 58//9 76//9
f 77//9 57//9 58//9
f 78//9 57//9 77//9
f 78//9 56//9 57//9
f 79//9 56//9 78//9
f 79//9 55//9 56//9
f 80//9 55//9 79//9
f 80//9 54//9 55//9
f 81//9 54//9 80//9
f 81//9 53//9 54//9
f 82//9 53//9 81//9
f 82//9 52//9 53//9
f 83//9 52//9 82//9
f 83//9 51//9 52//9
f 83//9 50//9 51//9
f 84//9 50//9 83//9
f 96//9 49//9 50//9
f 84//9 96//9 50//9
f 95//9 96//9 84//9
f 85//9 95//9 84//9
f 85//13 94//13 95//13
f 85//14 93//14 94//14
f 85//15 92//15 93//15
f 85//16 91//16 92//16
f 85//17 90//17 91//17
f 85//18 89//18 90//18
f 85//19 88//19 89//19
f 86//9 88//9 85//9
f 86//9 87//9 88//9
s 1
f 100//20 99//20 97//21
f 102//22 101//22 99//20
f 104//23 103//23 101//22
f 106//24 105//24 103//23
f 108//25 107//25 105//24
f 110//26 109//26 107//25
f 112//27 111//27 109//26
f 114//28 113//28 111//27
f 116//29 115//29 113//28
f 118//30 117//30 115//29
f 120//31 119//31 117//30
f 122//32 121//32 119//31
f 124//33 123//33 121//32
f 126//34 125//34 123//33
f 128//35 127//35 125//34
f 130//36 129//36 127//35
f 132//37 131//37 129//36
f 134//38 133//38 131//37
f 136//39 135//39 133//38
f 138//40 137//40 135//39
f 140//41 139//41 137//40
f 142//42 141//42 139//41
f 144//43 143//43 141//42
f 146//44 145//44 143//43
f 148//45 147//45 145//44
f 150//46 149//46 147//45
f 152//47 151//47 149//46
f 154//48 153//48 151//47
f 156//49 155//49 153//48
f 158//50 157//50 155//49
f 160//51 159//51 157//50
f 162//52 161//52 159//51
f 164//53 163//53 161//52
f 166//54 165//54 163//53
f 168//55 167//55 165//54
f 170//56 169//56 167//55
f 172//57 171//58 169//56
f 174//59 173//59 171//58
f 176//60 175//60 173//59
f 178//61 177//61 175//60
f 180//62 179//62 177//61
f 182//63 181//63 179//62
f 184//64 183//64 181//63
f 186//65 185//65 183//64
f 188//66 187//66 185//65
f 190//67 189//67 187//66
f 192//68 191//68 189//67
f 98//21 97//21 191//68
f 98//21 100//20 97//21
f 100//20 102//22 99//20
f 102//22 104//23 101//22
f 104//23 106//24 103//23
f 106//24 108//25 105//24
f 108//25 110//26 107//25
f 110//26 112//27 109//26
f 112//27 114//28 111//27
f 114//28 116//29 113//28
f 116//29 118//30 115//29
f 118//30 120//31 117//30
f 120//31 122//32 119//31
f 122//32 124//33 121//32
f 124//33 126//34 123//33
f 126//34 128//35 125//34
f 128//35 130//36 127//35
f 130//36 132//37 129//36
f 132//37 134//38 131//37
f 134//38 136//39 133//38
f 136//39 138//40 135//39
f 138//40 140//41 137//40
f 140//41 142//42 139//41
f 142//42 144//43 141//42
f 144//43 146//44 143//43
f 146//44 148//45 145//44
f 148//45 150//46 147//45
f 150//46 152//47 149//46
f 152//47 154//48 151//47
f 154//48 156//49 153//48
f 156//49 158//50 155//49
f 158//50 160//51 157//50
f 160//51 162//52 159//51
f 162//52 164//53 161//52
f 164//53 166//54 163//53
f 166//54 168//55 165//54
f 168//55 170//56 167//55
f 170//56 172//57 169//56
f 172//57 174//59 171//58
f 174//59 176//60 173//59
f 176//60 178//61 175//60
f 178//61 180//62 177//61
f 180//62 182//63 179//62
f 182//63 184//64 181//63
f 184//64 186//65 183//64
f 186//65 188//66 185//65
f 188//66 190//67 187//66
f 190//67 192//68 189//67
f 192//68 98//21 191//68
