# Blender v2.76 (sub 0) OBJ File: 'v03.blend'
# www.blender.org
mtllib v02-left.mtl
o BezierCircle
v -0.170381 0.187858 0.156548
v -0.191618 0.187858 0.155118
v -0.211989 0.187858 0.150954
v -0.231306 0.187858 0.144242
v -0.249383 0.187858 0.135169
v -0.266032 0.187858 0.123922
v -0.281068 0.187858 0.110687
v -0.294302 0.187858 0.095651
v -0.305550 0.187858 0.079002
v -0.314623 0.187858 0.060925
v -0.321335 0.187858 0.041608
v -0.325499 0.187858 0.021237
v -0.326929 0.187858 0.000000
v -0.325499 0.187858 -0.021237
v -0.321335 0.187858 -0.041608
v -0.314623 0.187858 -0.060925
v -0.305550 0.187858 -0.079002
v -0.294303 0.187858 -0.095651
v -0.281068 0.187858 -0.110687
v -0.266032 0.187858 -0.123922
v -0.249383 0.187858 -0.135169
v -0.231306 0.187858 -0.144242
v -0.211989 0.187858 -0.150954
v -0.191618 0.187858 -0.155118
v -0.170381 0.187858 -0.156548
v -0.149143 0.187858 -0.155118
v -0.128773 0.187858 -0.150954
v -0.109456 0.187858 -0.144242
v -0.091379 0.187858 -0.135169
v -0.074730 0.187858 -0.123922
v -0.059694 0.187858 -0.110687
v -0.046459 0.187858 -0.095651
v -0.035212 0.187858 -0.079002
v -0.026139 0.187858 -0.060925
v -0.019427 0.187858 -0.041608
v -0.015262 0.187858 -0.021237
v -0.013833 0.187858 0.000000
v -0.015262 0.187858 0.021237
v -0.019427 0.187858 0.041608
v -0.026139 0.187858 0.060925
v -0.035212 0.187858 0.079002
v -0.046459 0.187858 0.095651
v -0.059694 0.187858 0.110687
v -0.074730 0.187858 0.123922
v -0.091379 0.187858 0.135169
v -0.109456 0.187858 0.144242
v -0.128773 0.187858 0.150954
v -0.149143 0.187858 0.155118
v -0.170381 -0.187858 0.156548
v -0.191618 -0.187858 0.155118
v -0.211989 -0.187858 0.150954
v -0.231306 -0.187858 0.144242
v -0.249383 -0.187858 0.135169
v -0.266032 -0.187858 0.123922
v -0.281068 -0.187858 0.110687
v -0.294302 -0.187858 0.095651
v -0.305550 -0.187858 0.079002
v -0.314623 -0.187858 0.060925
v -0.321335 -0.187858 0.041608
v -0.325499 -0.187858 0.021237
v -0.326929 -0.187858 0.000000
v -0.325499 -0.187858 -0.021237
v -0.321335 -0.187858 -0.041608
v -0.314623 -0.187858 -0.060925
v -0.305550 -0.187858 -0.079002
v -0.294303 -0.187858 -0.095651
v -0.281068 -0.187858 -0.110687
v -0.266032 -0.187858 -0.123922
v -0.249383 -0.187858 -0.135169
v -0.231306 -0.187858 -0.144242
v -0.211989 -0.187858 -0.150954
v -0.191618 -0.187858 -0.155118
v -0.170381 -0.187858 -0.156548
v -0.149143 -0.187858 -0.155118
v -0.128773 -0.187858 -0.150954
v -0.109456 -0.187858 -0.144242
v -0.091379 -0.187858 -0.135169
v -0.074730 -0.187858 -0.123922
v -0.059694 -0.187858 -0.110687
v -0.046459 -0.187858 -0.095651
v -0.035212 -0.187858 -0.079002
v -0.026139 -0.187858 -0.060925
v -0.019427 -0.187858 -0.041608
v -0.015262 -0.187858 -0.021237
v -0.013833 -0.187858 0.000000
v -0.015262 -0.187858 0.021237
v -0.019427 -0.187858 0.041608
v -0.026139 -0.187858 0.060925
v -0.035212 -0.187858 0.079002
v -0.046459 -0.187858 0.095651
v -0.059694 -0.187858 0.110687
v -0.074730 -0.187858 0.123922
v -0.091379 -0.187858 0.135169
v -0.109456 -0.187858 0.144242
v -0.128773 -0.187858 0.150954
v -0.149143 -0.187858 0.155118
v -0.170381 -0.187858 0.156548
v -0.170381 0.187858 0.156548
v -0.191618 -0.187858 0.155118
v -0.191618 0.187858 0.155118
v -0.211989 -0.187858 0.150954
v -0.211989 0.187858 0.150954
v -0.231306 -0.187858 0.144242
v -0.231306 0.187858 0.144242
v -0.249383 -0.187858 0.135169
v -0.249383 0.187858 0.135169
v -0.266032 -0.187858 0.123922
v -0.266032 0.187858 0.123922
v -0.281068 -0.187858 0.110687
v -0.281068 0.187858 0.110687
v -0.294302 -0.187858 0.095651
v -0.294302 0.187858 0.095651
v -0.305550 -0.187858 0.079002
v -0.305550 0.187858 0.079002
v -0.314623 -0.187858 0.060925
v -0.314623 0.187858 0.060925
v -0.321335 -0.187858 0.041608
v -0.321335 0.187858 0.041608
v -0.325499 -0.187858 0.021237
v -0.325499 0.187858 0.021237
v -0.326929 -0.187858 0.000000
v -0.326929 0.187858 0.000000
v -0.325499 -0.187858 -0.021237
v -0.325499 0.187858 -0.021237
v -0.321335 -0.187858 -0.041608
v -0.321335 0.187858 -0.041608
v -0.314623 -0.187858 -0.060925
v -0.314623 0.187858 -0.060925
v -0.305550 -0.187858 -0.079002
v -0.305550 0.187858 -0.079002
v -0.294303 -0.187858 -0.095651
v -0.294303 0.187858 -0.095651
v -0.281068 -0.187858 -0.110687
v -0.281068 0.187858 -0.110687
v -0.266032 -0.187858 -0.123922
v -0.266032 0.187858 -0.123922
v -0.249383 -0.187858 -0.135169
v -0.249383 0.187858 -0.135169
v -0.231306 -0.187858 -0.144242
v -0.231306 0.187858 -0.144242
v -0.211989 -0.187858 -0.150954
v -0.211989 0.187858 -0.150954
v -0.191618 -0.187858 -0.155118
v -0.191618 0.187858 -0.155118
v -0.170381 -0.187858 -0.156548
v -0.170381 0.187858 -0.156548
v -0.149143 -0.187858 -0.155118
v -0.149143 0.187858 -0.155118
v -0.128773 -0.187858 -0.150954
v -0.128773 0.187858 -0.150954
v -0.109456 -0.187858 -0.144242
v -0.109456 0.187858 -0.144242
v -0.091379 -0.187858 -0.135169
v -0.091379 0.187858 -0.135169
v -0.074730 -0.187858 -0.123922
v -0.074730 0.187858 -0.123922
v -0.059694 -0.187858 -0.110687
v -0.059694 0.187858 -0.110687
v -0.046459 -0.187858 -0.095651
v -0.046459 0.187858 -0.095651
v -0.035212 -0.187858 -0.079002
v -0.035212 0.187858 -0.079002
v -0.026139 -0.187858 -0.060925
v -0.026139 0.187858 -0.060925
v -0.019427 -0.187858 -0.041608
v -0.019427 0.187858 -0.041608
v -0.015262 -0.187858 -0.021237
v -0.015262 0.187858 -0.021237
v -0.013833 -0.187858 0.000000
v -0.013833 0.187858 0.000000
v -0.015262 -0.187858 0.021237
v -0.015262 0.187858 0.021237
v -0.019427 -0.187858 0.041608
v -0.019427 0.187858 0.041608
v -0.026139 -0.187858 0.060925
v -0.026139 0.187858 0.060925
v -0.035212 -0.187858 0.079002
v -0.035212 0.187858 0.079002
v -0.046459 -0.187858 0.095651
v -0.046459 0.187858 0.095651
v -0.059694 -0.187858 0.110687
v -0.059694 0.187858 0.110687
v -0.074730 -0.187858 0.123922
v -0.074730 0.187858 0.123922
v -0.091379 -0.187858 0.135169
v -0.091379 0.187858 0.135169
v -0.109456 -0.187858 0.144242
v -0.109456 0.187858 0.144242
v -0.128773 -0.187858 0.150954
v -0.128773 0.187858 0.150954
v -0.149143 -0.187858 0.155118
v -0.149143 0.187858 0.155118
vn 0.000000 1.000000 0.000000
vn 0.000000 -1.000000 0.000000
vn -0.134000 0.000000 0.991000
vn 0.000000 0.000000 1.000000
vn -0.264800 0.000000 0.964300
vn -0.389200 0.000000 0.921100
vn -0.505200 0.000000 0.863000
vn -0.611500 0.000000 0.791200
vn -0.707100 0.000000 0.707100
vn -0.791200 0.000000 0.611500
vn -0.863000 0.000000 0.505200
vn -0.921100 0.000000 0.389200
vn -0.964300 0.000000 0.264800
vn -0.991000 0.000000 0.134000
vn -1.000000 0.000000 0.000000
vn -0.991000 0.000000 -0.134000
vn -0.964300 0.000000 -0.264800
vn -0.921100 0.000000 -0.389200
vn -0.863000 0.000000 -0.505200
vn -0.791200 0.000000 -0.611500
vn -0.707100 0.000000 -0.707100
vn -0.611500 0.000000 -0.791200
vn -0.505200 0.000000 -0.863000
vn -0.389200 0.000000 -0.921100
vn -0.264800 0.000000 -0.964300
vn -0.134000 0.000000 -0.991000
vn 0.000000 0.000000 -1.000000
vn 0.134000 0.000000 -0.991000
vn 0.264800 0.000000 -0.964300
vn 0.389200 0.000000 -0.921100
vn 0.505200 0.000000 -0.863000
vn 0.611500 0.000000 -0.791200
vn 0.707100 0.000000 -0.707100
vn 0.791200 0.000000 -0.611500
vn 0.863000 0.000000 -0.505200
vn 0.921100 0.000000 -0.389200
vn 0.964300 0.000000 -0.264800
vn 0.991000 0.000000 -0.134000
vn 1.000000 0.000000 0.000000
vn 0.991000 0.000000 0.134000
vn 0.964300 0.000000 0.264800
vn 0.921100 0.000000 0.389200
vn 0.863000 0.000000 0.505200
vn 0.791200 0.000000 0.611500
vn 0.707100 0.000000 0.707100
vn 0.611500 0.000000 0.791200
vn 0.505200 0.000000 0.863000
vn 0.389200 0.000000 0.921100
vn 0.264800 0.000000 0.964300
vn 0.134000 0.000000 0.991000
usemtl None
s off
f 24//1 26//1 25//1
f 24//1 27//1 26//1
f 23//1 27//1 24//1
f 23//1 28//1 27//1
f 22//1 28//1 23//1
f 22//1 29//1 28//1
f 21//1 29//1 22//1
f 21//1 30//1 29//1
f 20//1 30//1 21//1
f 20//1 31//1 30//1
f 19//1 31//1 20//1
f 19//1 32//1 31//1
f 18//1 32//1 19//1
f 18//1 33//1 32//1
f 17//1 33//1 18//1
f 17//1 34//1 33//1
f 16//1 34//1 17//1
f 16//1 35//1 34//1
f 15//1 35//1 16//1
f 15//1 36//1 35//1
f 14//1 36//1 15//1
f 13//1 36//1 14//1
f 13//1 37//1 36//1
f 12//1 37//1 13//1
f 12//1 38//1 37//1
f 11//1 38//1 12//1
f 11//1 39//1 38//1
f 11//1 40//1 39//1
f 10//1 40//1 11//1
f 10//1 41//1 40//1
f 9//1 41//1 10//1
f 9//1 42//1 41//1
f 8//1 42//1 9//1
f 8//1 43//1 42//1
f 7//1 43//1 8//1
f 7//1 44//1 43//1
f 6//1 44//1 7//1
f 6//1 45//1 44//1
f 5//1 45//1 6//1
f 5//1 46//1 45//1
f 4//1 46//1 5//1
f 4//1 47//1 46//1
f 3//1 47//1 4//1
f 3//1 48//1 47//1
f 2//1 48//1 3//1
f 2//1 1//1 48//1
f 74//2 72//2 73//2
f 75//2 72//2 74//2
f 75//2 71//2 72//2
f 76//2 71//2 75//2
f 76//2 70//2 71//2
f 77//2 70//2 76//2
f 77//2 69//2 70//2
f 78//2 69//2 77//2
f 78//2 68//2 69//2
f 79//2 68//2 78//2
f 79//2 67//2 68//2
f 80//2 67//2 79//2
f 80//2 66//2 67//2
f 81//2 66//2 80//2
f 81//2 65//2 66//2
f 82//2 65//2 81//2
f 82//2 64//2 65//2
f 83//2 64//2 82//2
f 83//2 63//2 64//2
f 84//2 63//2 83//2
f 84//2 62//2 63//2
f 84//2 61//2 62//2
f 85//2 61//2 84//2
f 85//2 60//2 61//2
f 86//2 60//2 85//2
f 86//2 59//2 60//2
f 87//2 59//2 86//2
f 88//2 59//2 87//2
f 88//2 58//2 59//2
f 89//2 58//2 88//2
f 89//2 57//2 58//2
f 90//2 57//2 89//2
f 90//2 56//2 57//2
f 91//2 56//2 90//2
f 91//2 55//2 56//2
f 92//2 55//2 91//2
f 92//2 54//2 55//2
f 93//2 54//2 92//2
f 93//2 53//2 54//2
f 94//2 53//2 93//2
f 94//2 52//2 53//2
f 95//2 52//2 94//2
f 95//2 51//2 52//2
f 96//2 51//2 95//2
f 96//2 50//2 51//2
f 49//2 50//2 96//2
s 1
f 100//3 99//3 97//4
f 102//5 101//5 99//3
f 104//6 103//6 101//5
f 106//7 105//7 103//6
f 108//8 107//8 105//7
f 110//9 109//9 107//8
f 112//10 111//10 109//9
f 114//11 113//11 111//10
f 116//12 115//12 113//11
f 118//13 117//13 115//12
f 120//14 119//14 117//13
f 122//15 121//15 119//14
f 124//16 123//16 121//15
f 126//17 125//17 123//16
f 128//18 127//18 125//17
f 130//19 129//19 127//18
f 132//20 131//20 129//19
f 134//21 133//21 131//20
f 136//22 135//22 133//21
f 138//23 137//23 135//22
f 140//24 139//24 137//23
f 142//25 141//25 139//24
f 144//26 143//26 141//25
f 146//27 145//27 143//26
f 148//28 147//28 145//27
f 150//29 149//29 147//28
f 152//30 151//30 149//29
f 154//31 153//31 151//30
f 156//32 155//32 153//31
f 158//33 157//33 155//32
f 160//34 159//34 157//33
f 162//35 161//35 159//34
f 164//36 163//36 161//35
f 166//37 165//37 163//36
f 168//38 167//38 165//37
f 170//39 169//39 167//38
f 172//40 171//40 169//39
f 174//41 173//41 171//40
f 176//42 175//42 173//41
f 178//43 177//43 175//42
f 180//44 179//44 177//43
f 182//45 181//45 179//44
f 184//46 183//46 181//45
f 186//47 185//47 183//46
f 188//48 187//48 185//47
f 190//49 189//49 187//48
f 192//50 191//50 189//49
f 98//4 97//4 191//50
f 98//4 100//3 97//4
f 100//3 102//5 99//3
f 102//5 104//6 101//5
f 104//6 106//7 103//6
f 106//7 108//8 105//7
f 108//8 110//9 107//8
f 110//9 112//10 109//9
f 112//10 114//11 111//10
f 114//11 116//12 113//11
f 116//12 118//13 115//12
f 118//13 120//14 117//13
f 120//14 122//15 119//14
f 122//15 124//16 121//15
f 124//16 126//17 123//16
f 126//17 128//18 125//17
f 128//18 130//19 127//18
f 130//19 132//20 129//19
f 132//20 134//21 131//20
f 134//21 136//22 133//21
f 136//22 138//23 135//22
f 138//23 140//24 137//23
f 140//24 142//25 139//24
f 142//25 144//26 141//25
f 144//26 146//27 143//26
f 146//27 148//28 145//27
f 148//28 150//29 147//28
f 150//29 152//30 149//29
f 152//30 154//31 151//30
f 154//31 156//32 153//31
f 156//32 158//33 155//32
f 158//33 160//34 157//33
f 160//34 162//35 159//34
f 162//35 164//36 161//35
f 164//36 166//37 163//36
f 166//37 168//38 165//37
f 168//38 170//39 167//38
f 170//39 172//40 169//39
f 172//40 174//41 171//40
f 174//41 176//42 173//41
f 176//42 178//43 175//42
f 178//43 180//44 177//43
f 180//44 182//45 179//44
f 182//45 184//46 181//45
f 184//46 186//47 183//46
f 186//47 188//48 185//47
f 188//48 190//49 187//48
f 190//49 192//50 189//49
f 192//50 98//4 191//50
