# Blender v2.76 (sub 0) OBJ File: 'v04.blend'
# www.blender.org
mtllib v02-happy.mtl
o BezierCurve.001
v -0.461216 0.321641 0.402059
v -0.344445 0.324562 0.461830
v -0.244287 0.326827 0.508193
v -0.156675 0.328436 0.541108
v -0.077542 0.329385 0.560534
v -0.002819 0.329673 0.566430
v 0.071561 0.329298 0.558755
v 0.149664 0.328258 0.537470
v 0.235559 0.326551 0.502532
v 0.333313 0.324174 0.453903
v 0.446993 0.321127 0.391540
v 0.580667 0.317406 0.315403
v 0.589585 0.317177 0.310728
v 0.597423 0.317018 0.307463
v 0.604106 0.316924 0.305545
v 0.609560 0.316893 0.304912
v 0.613711 0.316922 0.305501
v 0.616483 0.317007 0.307249
v 0.617802 0.317146 0.310094
v 0.617594 0.317336 0.313973
v 0.615785 0.317573 0.318824
v 0.612299 0.317854 0.324583
v 0.607062 0.318177 0.331187
v 0.600000 0.318538 0.338576
v 0.460012 0.325148 0.473835
v 0.341137 0.330569 0.584751
v 0.239102 0.334794 0.671208
v 0.149636 0.337818 0.733093
v 0.068466 0.339636 0.770293
v -0.008682 0.340242 0.782695
v -0.086080 0.339630 0.770185
v -0.168000 0.337796 0.732650
v -0.258715 0.334733 0.669976
v -0.362497 0.330437 0.582049
v -0.483620 0.324900 0.468757
v -0.626356 0.318119 0.329985
v -0.630326 0.317918 0.325881
v -0.633257 0.317746 0.322361
v -0.635118 0.317605 0.319467
v -0.635879 0.317496 0.317246
v -0.635508 0.317422 0.315739
v -0.633975 0.317386 0.314992
v -0.631250 0.317389 0.315048
v -0.627301 0.317433 0.315952
v -0.622100 0.317520 0.317747
v -0.615614 0.317654 0.320478
v -0.607813 0.317835 0.324187
v -0.598667 0.318066 0.328920
v -0.461216 0.121879 0.411821
v -0.344445 0.124800 0.471592
v -0.244287 0.127066 0.517955
v -0.156675 0.128674 0.550870
v -0.077542 0.129624 0.570296
v -0.002819 0.129912 0.576192
v 0.071561 0.129537 0.568517
v 0.149664 0.128496 0.547232
v 0.235559 0.126789 0.512294
v 0.333313 0.124413 0.463665
v 0.446993 0.121365 0.401302
v 0.580667 0.117644 0.325165
v 0.589585 0.117416 0.320490
v 0.597423 0.117256 0.317225
v 0.604106 0.117163 0.315307
v 0.609560 0.117132 0.314674
v 0.613711 0.117160 0.315263
v 0.616483 0.117246 0.317012
v 0.617802 0.117385 0.319856
v 0.617594 0.117574 0.323736
v 0.615785 0.117811 0.328586
v 0.612299 0.118093 0.334345
v 0.607062 0.118416 0.340950
v 0.600000 0.118777 0.348338
v 0.460012 0.125387 0.483597
v 0.341137 0.130807 0.594513
v 0.239102 0.135032 0.680970
v 0.149636 0.138056 0.742855
v 0.068466 0.139874 0.780055
v -0.008682 0.140480 0.792457
v -0.086080 0.139869 0.779947
v -0.168000 0.138035 0.742412
v -0.258715 0.134972 0.679738
v -0.362497 0.130675 0.591811
v -0.483620 0.125138 0.478519
v -0.626356 0.118357 0.339747
v -0.630326 0.118156 0.335643
v -0.633257 0.117984 0.332123
v -0.635118 0.117843 0.329230
v -0.635879 0.117734 0.327008
v -0.635508 0.117661 0.325501
v -0.633975 0.117624 0.324754
v -0.631250 0.117627 0.324810
v -0.627301 0.117671 0.325714
v -0.622100 0.117759 0.327509
v -0.615614 0.117892 0.330240
v -0.607813 0.118074 0.333949
v -0.598667 0.118305 0.338682
v -0.461216 0.121879 0.411821
v -0.461216 0.321641 0.402059
v -0.344445 0.124800 0.471592
v -0.344445 0.324562 0.461830
v -0.244287 0.127066 0.517955
v -0.244287 0.326827 0.508193
v -0.156675 0.128674 0.550870
v -0.156675 0.328436 0.541108
v -0.077542 0.129624 0.570296
v -0.077542 0.329385 0.560534
v -0.002819 0.129912 0.576192
v -0.002819 0.329673 0.566430
v 0.071561 0.129537 0.568517
v 0.071561 0.329298 0.558755
v 0.149664 0.128496 0.547232
v 0.149664 0.328258 0.537470
v 0.235559 0.126789 0.512294
v 0.235559 0.326551 0.502532
v 0.333313 0.124413 0.463665
v 0.333313 0.324174 0.453903
v 0.446993 0.121365 0.401302
v 0.446993 0.321127 0.391540
v 0.580667 0.117644 0.325165
v 0.580667 0.317406 0.315403
v 0.589585 0.117416 0.320490
v 0.589585 0.317177 0.310728
v 0.597423 0.117256 0.317225
v 0.597423 0.317018 0.307463
v 0.604106 0.117163 0.315307
v 0.604106 0.316924 0.305545
v 0.609560 0.117132 0.314674
v 0.609560 0.316893 0.304912
v 0.613711 0.117160 0.315263
v 0.613711 0.316922 0.305501
v 0.616483 0.117246 0.317012
v 0.616483 0.317007 0.307249
v 0.617802 0.117385 0.319856
v 0.617802 0.317146 0.310094
v 0.617594 0.117574 0.323736
v 0.617594 0.317336 0.313973
v 0.615785 0.117811 0.328586
v 0.615785 0.317573 0.318824
v 0.612299 0.118093 0.334345
v 0.612299 0.317854 0.324583
v 0.607062 0.118416 0.340950
v 0.607062 0.318177 0.331187
v 0.600000 0.118777 0.348338
v 0.600000 0.318538 0.338576
v 0.460012 0.125387 0.483597
v 0.460012 0.325148 0.473835
v 0.341137 0.130807 0.594513
v 0.341137 0.330569 0.584751
v 0.239102 0.135032 0.680970
v 0.239102 0.334794 0.671208
v 0.149636 0.138056 0.742855
v 0.149636 0.337818 0.733093
v 0.068466 0.139874 0.780055
v 0.068466 0.339636 0.770293
v -0.008682 0.140480 0.792457
v -0.008682 0.340242 0.782695
v -0.086080 0.139869 0.779947
v -0.086080 0.339630 0.770185
v -0.168000 0.138035 0.742412
v -0.168000 0.337796 0.732650
v -0.258715 0.134972 0.679738
v -0.258715 0.334733 0.669976
v -0.362497 0.130675 0.591811
v -0.362497 0.330437 0.582049
v -0.483620 0.125138 0.478519
v -0.483620 0.324900 0.468757
v -0.626356 0.118357 0.339747
v -0.626356 0.318119 0.329985
v -0.630326 0.118156 0.335643
v -0.630326 0.317918 0.325881
v -0.633257 0.117984 0.332123
v -0.633257 0.317746 0.322361
v -0.635118 0.117843 0.329230
v -0.635118 0.317605 0.319467
v -0.635879 0.117734 0.327008
v -0.635879 0.317496 0.317246
v -0.635508 0.117661 0.325501
v -0.635508 0.317422 0.315739
v -0.633975 0.117624 0.324754
v -0.633975 0.317386 0.314992
v -0.631250 0.117627 0.324810
v -0.631250 0.317389 0.315048
v -0.627301 0.117671 0.325714
v -0.627301 0.317433 0.315952
v -0.622100 0.117759 0.327509
v -0.622100 0.317520 0.317747
v -0.615614 0.117892 0.330240
v -0.615614 0.317654 0.320478
v -0.607813 0.118074 0.333949
v -0.607813 0.317835 0.324187
v -0.598667 0.118305 0.338682
v -0.598667 0.318066 0.328920
vn -0.000000 0.998800 -0.048800
vn 0.000000 -0.998800 0.048800
vn 0.438400 -0.043900 -0.897700
vn 0.463100 -0.043200 -0.885200
vn 0.386500 -0.045000 -0.921200
vn 0.295900 -0.046600 -0.954100
vn 0.159200 -0.048200 -0.986100
vn -0.012000 -0.048800 -0.998700
vn -0.183600 -0.048000 -0.981800
vn -0.320700 -0.046200 -0.946000
vn -0.411800 -0.044500 -0.910200
vn -0.463700 -0.043200 -0.884900
vn -0.488400 -0.042600 -0.871600
vn -0.480100 -0.042800 -0.876100
vn -0.425200 -0.044200 -0.904000
vn -0.331100 -0.046100 -0.942500
vn -0.196400 -0.047900 -0.979300
vn 0.012700 -0.048800 -0.998700
vn 0.344900 -0.045800 -0.937500
vn 0.751300 -0.032200 -0.659100
vn 0.982000 -0.009200 -0.188800
vn 0.979000 0.009900 0.203400
vn 0.900300 0.021200 0.434600
vn 0.821500 0.027800 0.569500
vn 0.754400 0.032000 0.655600
vn 0.709400 0.034400 0.703900
vn 0.689000 0.035400 0.723900
vn 0.664900 0.036400 0.746000
vn 0.608800 0.038700 0.792300
vn 0.495100 0.042400 0.867800
vn 0.290600 0.046700 0.955700
vn -0.000400 0.048800 0.998800
vn -0.291000 0.046700 0.955600
vn -0.494800 0.042400 0.867900
vn -0.608600 0.038700 0.792500
vn -0.665400 0.036400 0.745600
vn -0.690500 0.035300 0.722400
vn -0.708400 0.034400 0.704900
vn -0.744500 0.032600 0.666800
vn -0.806600 0.028800 0.590300
vn -0.900400 0.021200 0.434600
vn -0.999000 0.002100 0.044000
vn -0.778200 -0.030600 -0.627200
vn -0.214900 -0.047600 -0.975400
vn 0.122700 -0.048400 -0.991200
vn 0.275300 -0.046900 -0.960200
vn 0.357600 -0.045600 -0.932700
vn 0.409200 -0.044500 -0.911300
vn 0.445000 -0.043700 -0.894400
vn 0.465100 -0.043200 -0.884200
usemtl None
s off
f 15//1 17//1 16//1
f 15//1 18//1 17//1
f 14//1 18//1 15//1
f 14//1 19//1 18//1
f 13//1 19//1 14//1
f 13//1 20//1 19//1
f 12//1 20//1 13//1
f 12//1 21//1 20//1
f 41//1 43//1 42//1
f 41//1 44//1 43//1
f 11//1 21//1 12//1
f 40//1 44//1 41//1
f 40//1 45//1 44//1
f 39//1 45//1 40//1
f 39//1 46//1 45//1
f 11//1 22//1 21//1
f 38//1 46//1 39//1
f 38//1 47//1 46//1
f 37//1 47//1 38//1
f 37//1 48//1 47//1
f 11//1 23//1 22//1
f 36//1 48//1 37//1
f 36//1 1//1 48//1
f 35//1 1//1 36//1
f 11//1 24//1 23//1
f 11//1 25//1 24//1
f 10//1 25//1 11//1
f 35//1 2//1 1//1
f 9//1 25//1 10//1
f 35//1 3//1 2//1
f 34//1 3//1 35//1
f 9//1 26//1 25//1
f 8//1 26//1 9//1
f 34//1 4//1 3//1
f 7//1 26//1 8//1
f 34//1 5//1 4//1
f 6//1 26//1 7//1
f 34//1 6//1 5//1
f 34//1 26//1 6//1
f 33//1 26//1 34//1
f 33//1 27//1 26//1
f 32//1 27//1 33//1
f 32//1 28//1 27//1
f 31//1 28//1 32//1
f 31//1 29//1 28//1
f 30//1 29//1 31//1
f 65//2 63//2 64//2
f 66//2 63//2 65//2
f 66//2 62//2 63//2
f 67//2 62//2 66//2
f 67//2 61//2 62//2
f 68//2 61//2 67//2
f 68//2 60//2 61//2
f 69//2 60//2 68//2
f 91//2 89//2 90//2
f 92//2 89//2 91//2
f 69//2 59//2 60//2
f 92//2 88//2 89//2
f 93//2 88//2 92//2
f 93//2 87//2 88//2
f 94//2 87//2 93//2
f 70//2 59//2 69//2
f 94//2 86//2 87//2
f 95//2 86//2 94//2
f 95//2 85//2 86//2
f 96//2 85//2 95//2
f 71//2 59//2 70//2
f 96//2 84//2 85//2
f 49//2 84//2 96//2
f 49//2 83//2 84//2
f 72//2 59//2 71//2
f 73//2 59//2 72//2
f 73//2 58//2 59//2
f 50//2 83//2 49//2
f 73//2 57//2 58//2
f 51//2 83//2 50//2
f 51//2 82//2 83//2
f 74//2 57//2 73//2
f 74//2 56//2 57//2
f 52//2 82//2 51//2
f 74//2 55//2 56//2
f 53//2 82//2 52//2
f 74//2 54//2 55//2
f 54//2 82//2 53//2
f 74//2 82//2 54//2
f 74//2 81//2 82//2
f 75//2 81//2 74//2
f 75//2 80//2 81//2
f 76//2 80//2 75//2
f 76//2 79//2 80//2
f 77//2 79//2 76//2
f 77//2 78//2 79//2
s 1
f 100//3 99//3 97//4
f 102//5 101//5 99//3
f 104//6 103//6 101//5
f 106//7 105//7 103//6
f 108//8 107//8 105//7
f 110//9 109//9 107//8
f 112//10 111//10 109//9
f 114//11 113//11 111//10
f 116//12 115//12 113//11
f 116//12 118//13 117//13
f 118//13 120//14 119//14
f 120//14 122//15 121//15
f 124//16 123//16 121//15
f 126//17 125//17 123//16
f 126//17 128//18 127//18
f 130//19 129//19 127//18
f 132//20 131//20 129//19
f 134//21 133//21 131//20
f 136//22 135//22 133//21
f 138//23 137//23 135//22
f 140//24 139//24 137//23
f 142//25 141//25 139//24
f 144//26 143//26 141//25
f 146//27 145//27 143//26
f 146//27 148//28 147//28
f 150//29 149//29 147//28
f 152//30 151//30 149//29
f 152//30 154//31 153//31
f 156//32 155//32 153//31
f 158//33 157//33 155//32
f 160//34 159//34 157//33
f 162//35 161//35 159//34
f 164//36 163//36 161//35
f 166//37 165//37 163//36
f 168//38 167//38 165//37
f 170//39 169//39 167//38
f 172//40 171//40 169//39
f 172//40 174//41 173//41
f 176//42 175//42 173//41
f 176//42 178//43 177//43
f 180//44 179//44 177//43
f 182//45 181//45 179//44
f 184//46 183//46 181//45
f 184//46 186//47 185//47
f 186//47 188//48 187//48
f 190//49 189//49 187//48
f 190//49 192//50 191//50
f 98//4 97//4 191//50
f 98//4 100//3 97//4
f 100//3 102//5 99//3
f 102//5 104//6 101//5
f 104//6 106//7 103//6
f 106//7 108//8 105//7
f 108//8 110//9 107//8
f 110//9 112//10 109//9
f 112//10 114//11 111//10
f 114//11 116//12 113//11
f 115//12 116//12 117//13
f 117//13 118//13 119//14
f 119//14 120//14 121//15
f 122//15 124//16 121//15
f 124//16 126//17 123//16
f 125//17 126//17 127//18
f 128//18 130//19 127//18
f 130//19 132//20 129//19
f 132//20 134//21 131//20
f 134//21 136//22 133//21
f 136//22 138//23 135//22
f 138//23 140//24 137//23
f 140//24 142//25 139//24
f 142//25 144//26 141//25
f 144//26 146//27 143//26
f 145//27 146//27 147//28
f 148//28 150//29 147//28
f 150//29 152//30 149//29
f 151//30 152//30 153//31
f 154//31 156//32 153//31
f 156//32 158//33 155//32
f 158//33 160//34 157//33
f 160//34 162//35 159//34
f 162//35 164//36 161//35
f 164//36 166//37 163//36
f 166//37 168//38 165//37
f 168//38 170//39 167//38
f 170//39 172//40 169//39
f 171//40 172//40 173//41
f 174//41 176//42 173//41
f 175//42 176//42 177//43
f 178//43 180//44 177//43
f 180//44 182//45 179//44
f 182//45 184//46 181//45
f 183//46 184//46 185//47
f 185//47 186//47 187//48
f 188//48 190//49 187//48
f 189//49 190//49 191//50
f 192//50 98//4 191//50
